<svg xmlns="http://www.w3.org/2000/svg" viewBox="0 0 19.94 19.049"><title>explosion</title><g id="Layer_2" data-name="Layer 2"><g id="Layer_1-2" data-name="Layer 1"><path d="M18.994,1.448s-8.339,9.091-9.5,0c0,0-.232,4.375-2.085,4.041S1.564.637,1.042,0C1.042,0,9.555,10.887,0,8.686c0,0,9.43.838,1.1,7.355,0,0,7.123-6.663,7.065,3.008,0,0,1.216-13.49,9.15-.4,0,0-6.293-10.231,2.625-8.108,0,0-6.506-2.427-6.216-2.993S18.994,1.448,18.994,1.448Z" fill="#ffd624"/><path d="M16.51,9.553C16.748,8.3,16.249,7.157,15.4,7a1.124,1.124,0,0,0-.347-.01,2.313,2.313,0,0,0-2.071-2.314A2.736,2.736,0,0,0,11.016,5,1.965,1.965,0,0,0,9.538,3.649,2.053,2.053,0,0,0,7.3,4.99a1.674,1.674,0,0,0-.378-.123A1.616,1.616,0,0,0,5.029,6.152a1.67,1.67,0,0,0-.023.169,1.432,1.432,0,0,0-1.032,2.61,1.725,1.725,0,0,0-.643,1.032,2.1,2.1,0,0,0,1.851,2.3l.019,0a1.251,1.251,0,0,0-.442.717c-.185.976.974,2.016,2.59,2.324a3.261,3.261,0,0,0,2.992-.663,3.772,3.772,0,0,0,.99.334c1.509.287,2.9-.358,3.105-1.44a1.463,1.463,0,0,0-.005-.571,1.263,1.263,0,0,0,1.151-1.746A2.789,2.789,0,0,0,16.51,9.553Z" fill="#ff7900"/><path d="M15.613,8.532A1.415,1.415,0,1,1,13.06,9.755a5.284,5.284,0,0,1-.333,1.182,1.783,1.783,0,0,1-.815.89,1.884,1.884,0,0,1-1.134.1A3.189,3.189,0,0,1,8.5,10.152a1.406,1.406,0,0,1-2.551-.7,1.873,1.873,0,0,1-2.084-.426,1.7,1.7,0,0,0-.533.938,2.1,2.1,0,0,0,1.851,2.3l.019,0a1.251,1.251,0,0,0-.442.717c-.185.976.974,2.016,2.59,2.324a3.261,3.261,0,0,0,2.992-.663,3.772,3.772,0,0,0,.99.334c1.509.287,2.9-.358,3.105-1.44a1.463,1.463,0,0,0-.005-.571,1.263,1.263,0,0,0,1.151-1.746,2.789,2.789,0,0,0,.928-1.665c.01-.054.019-.108.026-.162A3.427,3.427,0,0,1,15.613,8.532Z" fill="#f36500"/><path d="M15.4,7a1.124,1.124,0,0,0-.347-.01,2.313,2.313,0,0,0-2.071-2.314A2.736,2.736,0,0,0,11.016,5,1.965,1.965,0,0,0,9.538,3.649,2.053,2.053,0,0,0,7.3,4.99a1.674,1.674,0,0,0-.378-.123A1.616,1.616,0,0,0,5.029,6.152a1.67,1.67,0,0,0-.023.169A1.431,1.431,0,0,0,3.7,8.691a2.578,2.578,0,0,1,1.249-.062,1.612,1.612,0,0,1,.467-1.957,1.614,1.614,0,0,1,2.008.13,1.236,1.236,0,0,1,.325-1.189,1.782,1.782,0,0,1,1.164-.494,1.577,1.577,0,0,1,1.135.334.978.978,0,0,1,.286,1.1,2.375,2.375,0,0,1,1.426-1.206,1.955,1.955,0,0,1,1.8.38,1.663,1.663,0,0,1,.485,1.744,1.638,1.638,0,0,1,1.829-.081,1.582,1.582,0,0,1,.532.579A1.418,1.418,0,0,0,15.4,7Z" fill="#ff9424"/><path d="M8.85,9.264c.171-.1.313-.015.484.09a.714.714,0,0,1,.579-.564.532.532,0,0,1,.528.439.6.6,0,0,0-1.027.441A.534.534,0,0,0,8.977,9.5a.769.769,0,0,0-.383.2A.507.507,0,0,1,8.85,9.264Z" fill="#da5a00"/><path d="M13.074,8.7a.635.635,0,0,1,.593-.444,1.19,1.19,0,0,1,.018-.461.4.4,0,0,1,.322-.3.291.291,0,0,0-.344-.086.421.421,0,0,0-.23.29.785.785,0,0,0,.012.379.522.522,0,0,0-.505.253.851.851,0,0,0-.1.578c.017.115.078.488.185.537A2.214,2.214,0,0,1,13.074,8.7Z" fill="#da5a00"/><path d="M7.951,4.8a2.388,2.388,0,0,1,.715-.694,1.092,1.092,0,0,1,.963-.09,1.611,1.611,0,0,1,.634.634A2.1,2.1,0,0,0,7.951,4.8Z" fill="#fff" opacity="0.3"/><path d="M7.151,7.35a.645.645,0,0,1,.67-.251.746.746,0,1,1,1.44.383A.65.65,0,0,0,7.971,7.4a.421.421,0,0,0-.6.034.711.711,0,0,0-.166.347A1.343,1.343,0,0,1,7.112,8,2.112,2.112,0,0,1,7.151,7.35Z" fill="#fff" opacity="0.3"/><path d="M5.807,5.306A1.3,1.3,0,0,1,7.054,5.12a1.5,1.5,0,0,0-.748.24,4.394,4.394,0,0,0-.626.489,5.443,5.443,0,0,1-.5.435A1.779,1.779,0,0,1,5.807,5.306Z" fill="#fff" opacity="0.3"/><path d="M5.187,13.108a1.132,1.132,0,0,0,.218.574,2.171,2.171,0,0,0,.956.731,4.828,4.828,0,0,0,1.18.3A5.017,5.017,0,0,0,9.917,14.6a11.408,11.408,0,0,1-2.182-.184,3.916,3.916,0,0,1-1.519-.539,1.905,1.905,0,0,1-.81-1.308C5.233,12.65,5.177,12.933,5.187,13.108Z" fill="#fff" opacity="0.3"/><path d="M3.945,10.482a.573.573,0,0,0,.758.3.826.826,0,0,0,1.453.584.875.875,0,0,1-.866-.106.668.668,0,0,1-.176-.822,1.109,1.109,0,0,1-.81-.127.7.7,0,0,1-.281-.569C3.819,9.851,3.858,10.289,3.945,10.482Z" fill="#fff" opacity="0.3"/><path d="M12.674,13.622a.851.851,0,0,0,.584-.776,1.632,1.632,0,0,0,.812-.129.634.634,0,0,0,.358-.681,1.367,1.367,0,0,1-1.652.482.506.506,0,0,1-.124.725c-.208.148-.546.054-.707.228A.726.726,0,0,0,12.674,13.622Z" fill="#da5a00"/></g></g></svg>