<svg xmlns="http://www.w3.org/2000/svg" viewBox="0 0 1859.779 1069.852"><title>stars</title><g id="Layer_2" data-name="Layer 2"><g id="Layer_1-2" data-name="Layer 1"><g id="stars"><g id="stars-2" data-name="stars"><circle cx="203.349" cy="713.7" r="3.526" fill="#fff"/><circle cx="307.374" cy="870.031" r="7.053" fill="#fff"/><circle cx="602.404" cy="555.018" r="3.526" fill="#fff"/><circle cx="374.373" cy="594.394" r="6.465" fill="#fff"/><circle cx="424.916" cy="697.244" r="3.526" fill="#fff"/><circle cx="93.447" cy="831.242" r="2.939" fill="#fff"/><circle cx="13.518" cy="587.93" r="9.403" fill="#fff"/><circle cx="191.007" cy="505.062" r="4.702" fill="#fff"/><circle cx="484.862" cy="855.926" r="4.702" fill="#fff"/><circle cx="283.278" cy="1018.722" r="4.702" fill="#fff"/><circle cx="545.396" cy="1045.168" r="13.517" fill="#fff"/><circle cx="720.534" cy="881.785" r="5.289" fill="#fff"/><circle cx="666.465" cy="693.718" r="6.465" fill="#fff"/><circle cx="768.139" cy="505.062" r="7.64" fill="#fff"/><circle cx="862.172" cy="687.253" r="4.702" fill="#fff"/><circle cx="992.644" cy="551.492" r="7.053" fill="#fff"/><circle cx="960.32" cy="920.574" r="14.105" fill="#fff"/><circle cx="816.919" cy="1023.423" r="3.526" fill="#fff"/><circle cx="1056.117" cy="1065.151" r="4.702" fill="#fff"/><circle cx="586.536" cy="945.258" r="2.939" fill="#fff"/><circle cx="424.916" cy="963.477" r="3.526" fill="#fff"/><circle cx="172.2" cy="906.469" r="5.289" fill="#fff"/><circle cx="307.374" cy="754.839" r="3.526" fill="#fff"/><circle cx="575.37" cy="780.699" r="3.526" fill="#fff"/><circle cx="813.392" cy="796.567" r="3.526" fill="#fff"/><circle cx="970.311" cy="717.226" r="4.114" fill="#fff"/><circle cx="841.603" cy="578.526" r="3.526" fill="#fff"/><circle cx="578.896" cy="624.368" r="8.816" fill="#fff"/><circle cx="702.315" cy="555.018" r="3.526" fill="#fff"/><circle cx="467.819" cy="512.703" r="3.526" fill="#fff"/><circle cx="287.979" cy="536.211" r="4.114" fill="#fff"/><circle cx="226.857" cy="628.482" r="4.702" fill="#fff"/><circle cx="1010.863" cy="637.297" r="3.526" fill="#fff"/><circle cx="960.32" cy="834.18" r="5.877" fill="#fff"/><circle cx="946.215" cy="1031.651" r="5.289" fill="#fff"/><circle cx="31.15" cy="733.682" r="4.702" fill="#fff"/><circle cx="105.201" cy="597.333" r="3.526" fill="#fff"/><circle cx="8.817" cy="481.554" r="4.702" fill="#fff"/><circle cx="35.851" cy="1008.73" r="4.702" fill="#fff"/></g><g id="stars-3" data-name="stars"><circle cx="60.534" cy="307.785" r="5.289" fill="#fff"/><circle cx="6.465" cy="119.718" r="6.465" fill="#fff"/><circle cx="202.172" cy="113.253" r="4.702" fill="#fff"/><circle cx="300.32" cy="346.574" r="14.105" fill="#fff"/><circle cx="156.919" cy="449.423" r="3.526" fill="#fff"/><circle cx="396.117" cy="491.151" r="4.702" fill="#fff"/><circle cx="153.392" cy="222.567" r="3.526" fill="#fff"/><circle cx="310.311" cy="143.226" r="4.114" fill="#fff"/><circle cx="181.603" cy="4.526" r="3.526" fill="#fff"/><circle cx="350.863" cy="63.297" r="3.526" fill="#fff"/><circle cx="300.32" cy="260.18" r="5.877" fill="#fff"/><circle cx="286.215" cy="457.651" r="5.289" fill="#fff"/></g><g id="stars-4" data-name="stars"><circle cx="1287.349" cy="721.7" r="3.526" fill="#fff"/><circle cx="1391.374" cy="878.031" r="7.053" fill="#fff"/><circle cx="1686.404" cy="563.018" r="3.526" fill="#fff"/><circle cx="1458.373" cy="602.394" r="6.465" fill="#fff"/><circle cx="1508.916" cy="705.244" r="3.526" fill="#fff"/><circle cx="1177.447" cy="839.242" r="2.939" fill="#fff"/><circle cx="1097.518" cy="595.93" r="9.403" fill="#fff"/><circle cx="1275.007" cy="513.062" r="4.702" fill="#fff"/><circle cx="1568.862" cy="863.926" r="4.702" fill="#fff"/><circle cx="1367.278" cy="1026.722" r="4.702" fill="#fff"/><circle cx="1629.396" cy="1053.168" r="13.517" fill="#fff"/><circle cx="1804.534" cy="889.785" r="5.289" fill="#fff"/><circle cx="1750.465" cy="701.718" r="6.465" fill="#fff"/><circle cx="1852.139" cy="513.062" r="7.64" fill="#fff"/><circle cx="1670.536" cy="953.258" r="2.939" fill="#fff"/><circle cx="1508.916" cy="971.477" r="3.526" fill="#fff"/><circle cx="1256.2" cy="914.469" r="5.289" fill="#fff"/><circle cx="1391.374" cy="762.839" r="3.526" fill="#fff"/><circle cx="1659.37" cy="788.699" r="3.526" fill="#fff"/><circle cx="1662.896" cy="632.368" r="8.816" fill="#fff"/><circle cx="1786.315" cy="563.018" r="3.526" fill="#fff"/><circle cx="1551.819" cy="520.703" r="3.526" fill="#fff"/><circle cx="1371.979" cy="544.211" r="4.114" fill="#fff"/><circle cx="1310.857" cy="636.482" r="4.702" fill="#fff"/><circle cx="1115.15" cy="741.682" r="4.702" fill="#fff"/><circle cx="1189.201" cy="605.333" r="3.526" fill="#fff"/><circle cx="1092.817" cy="489.554" r="4.702" fill="#fff"/><circle cx="1119.851" cy="1016.73" r="4.702" fill="#fff"/></g><g id="stars-5" data-name="stars"><circle cx="611.349" cy="138.7" r="3.526" fill="#fff"/><circle cx="715.374" cy="295.031" r="7.053" fill="#fff"/><circle cx="782.373" cy="19.394" r="6.465" fill="#fff"/><circle cx="832.916" cy="122.244" r="3.526" fill="#fff"/><circle cx="501.447" cy="256.242" r="2.939" fill="#fff"/><circle cx="421.518" cy="12.93" r="9.403" fill="#fff"/><circle cx="892.862" cy="280.926" r="4.702" fill="#fff"/><circle cx="691.278" cy="443.722" r="4.702" fill="#fff"/><circle cx="953.396" cy="470.168" r="13.517" fill="#fff"/><circle cx="1128.534" cy="306.785" r="5.289" fill="#fff"/><circle cx="1074.465" cy="118.718" r="6.465" fill="#fff"/><circle cx="1270.172" cy="112.253" r="4.702" fill="#fff"/><circle cx="1368.32" cy="345.574" r="14.105" fill="#fff"/><circle cx="1224.919" cy="448.423" r="3.526" fill="#fff"/><circle cx="1464.117" cy="490.151" r="4.702" fill="#fff"/><circle cx="994.536" cy="370.258" r="2.939" fill="#fff"/><circle cx="832.916" cy="388.477" r="3.526" fill="#fff"/><circle cx="580.2" cy="331.469" r="5.289" fill="#fff"/><circle cx="715.374" cy="179.839" r="3.526" fill="#fff"/><circle cx="983.37" cy="205.699" r="3.526" fill="#fff"/><circle cx="1221.392" cy="221.567" r="3.526" fill="#fff"/><circle cx="1378.311" cy="142.226" r="4.114" fill="#fff"/><circle cx="1249.603" cy="3.526" r="3.526" fill="#fff"/><circle cx="986.896" cy="49.368" r="8.816" fill="#fff"/><circle cx="634.857" cy="53.482" r="4.702" fill="#fff"/><circle cx="1418.863" cy="62.297" r="3.526" fill="#fff"/><circle cx="1368.32" cy="259.18" r="5.877" fill="#fff"/><circle cx="1354.215" cy="456.651" r="5.289" fill="#fff"/><circle cx="439.15" cy="158.682" r="4.702" fill="#fff"/><circle cx="513.201" cy="22.333" r="3.526" fill="#fff"/><circle cx="443.851" cy="433.73" r="4.702" fill="#fff"/></g><g id="stars-6" data-name="stars"><circle cx="1664.349" cy="219.7" r="3.526" fill="#fff"/><circle cx="1768.374" cy="376.031" r="7.053" fill="#fff"/><circle cx="1835.373" cy="100.394" r="6.465" fill="#fff"/><circle cx="1554.447" cy="337.242" r="2.939" fill="#fff"/><circle cx="1474.518" cy="93.93" r="9.403" fill="#fff"/><circle cx="1652.007" cy="11.062" r="4.702" fill="#fff"/><circle cx="1744.278" cy="524.722" r="4.702" fill="#fff"/><circle cx="1633.2" cy="412.469" r="5.289" fill="#fff"/><circle cx="1768.374" cy="260.839" r="3.526" fill="#fff"/><circle cx="1748.979" cy="42.211" r="4.114" fill="#fff"/><circle cx="1687.857" cy="134.482" r="4.702" fill="#fff"/><circle cx="1492.15" cy="239.682" r="4.702" fill="#fff"/><circle cx="1566.201" cy="103.333" r="3.526" fill="#fff"/><circle cx="1496.851" cy="514.73" r="4.702" fill="#fff"/></g></g></g></g></svg>